<svg xmlns="http://www.w3.org/2000/svg" xmlns:xlink="http://www.w3.org/1999/xlink" preserveAspectRatio="xMidYMid meet" style="width: 100%; height: 100%; transform: translate3d(0px, 0px, 0px); content-visibility: visible;" viewBox="1.8 -3 21.2 25.2">   <defs>     <clipPath id="__lottie_element_639">       <rect width="24" height="24" x="0" y="0"></rect>     </clipPath>     <clipPath id="__lottie_element_641">       <path d="M0,0 L600,0 L600,600 L0,600z"></path>     </clipPath>   </defs>   <g clip-path="url(#__lottie_element_639)">     <g clip-path="url(#__lottie_element_641)" transform="matrix(0.04, 0, 0, 0.04, 0, 0)" opacity="1" style="display: block;">       <g transform="matrix(25, 0, 0, 25, 299.99, 300.01)" opacity="1" style="display: block;">         <g opacity="1" transform="matrix(1, 0, 0, 1, 0, 0)">           <path fill="rgb(88, 101, 242)" fill-opacity="1" d="M-0.69,0.69 C0.67,2.05 1.51,3.52 1.84,4.74 C2.19,6.01 1.89,6.56 1.73,6.73 C1.56,6.89 1.01,7.19 -0.26,6.84 C-1.48,6.51 -2.95,5.67 -4.31,4.31 C-5.67,2.95 -6.51,1.48 -6.84,0.26 C-7.19,-1.01 -6.89,-1.56 -6.73,-1.73 C-6.56,-1.89 -6.01,-2.19 -4.74,-1.84 C-3.52,-1.51 -2.05,-0.67 -0.69,0.69z M0.72,-0.72 C-2.39,-3.84 -6.36,-4.92 -8.14,-3.14 C-8.69,-2.60 -8.96,-1.86 -8.99,-0.99 C-8.99,-0.99 -9,-1 -9,-1 C-9,-1 -10.16,7.92 -10.16,7.92 C-10.33,9.22 -9.22,10.33 -7.92,10.16 C-7.92,10.16 1,9 1,9 C1,9 0.99,8.99 0.99,8.99 C1.86,8.96 2.60,8.69 3.14,8.14 C4.92,6.36 3.84,2.39 0.72,-0.72z"></path>         </g>       </g>       <g transform="matrix(25, 0, 0, 25, 212.5, 112.5)" opacity="1" style="display: block;">         <g opacity="1" transform="matrix(1, 0, 0, 1, 0, 0)">           <path stroke-linecap="round" stroke-linejoin="miter" fill-opacity="0" stroke-miterlimit="4" stroke="rgb(88,101,242)" stroke-opacity="1" stroke-width="2" d=" M0.5,1.5 C0.5,1.5 -0.5,-1.5 -0.5,-1.5"></path>         </g>       </g>       <g transform="matrix(25, 0, 0, 25, 337.5, 100)" opacity="1" style="display: block;">         <g opacity="1" transform="matrix(1, 0, 0, 1, 0, 0)">           <path stroke-linecap="round" stroke-linejoin="miter" fill-opacity="0" stroke-miterlimit="4" stroke="rgb(88,101,242)" stroke-opacity="1" stroke-width="2" d=" M-0.5,2 C-0.5,2 0.5,-2 0.5,-2"></path>         </g>       </g>       <g transform="matrix(25, 0, 0, 25, 450, 150)" opacity="1" style="display: block;">         <g opacity="1" transform="matrix(1, 0, 0, 1, 0, 0)">           <path stroke-linecap="round" stroke-linejoin="miter" fill-opacity="0" stroke-miterlimit="4" stroke="rgb(88,101,242)" stroke-opacity="1" stroke-width="2" d=" M-2,2 C-2,2 2,-2 2,-2"></path>         </g>       </g>       <g transform="matrix(25, 0, 0, 25, 500, 262.5)" opacity="1" style="display: block;">         <g opacity="1" transform="matrix(1, 0, 0, 1, 0, 0)">           <path stroke-linecap="round" stroke-linejoin="miter" fill-opacity="0" stroke-miterlimit="4" stroke="rgb(88,101,242)" stroke-opacity="1" stroke-width="2" d=" M-2,0.5 C-2,0.5 2,-0.5 2,-0.5"></path>         </g>       </g>       <g transform="matrix(25, 0, 0, 25, 487.5, 387.5)" opacity="1" style="display: block;">         <g opacity="1" transform="matrix(1, 0, 0, 1, 0, 0)">           <path stroke-linecap="round" stroke-linejoin="miter" fill-opacity="0" stroke-miterlimit="4" stroke="rgb(88,101,242)" stroke-opacity="1" stroke-width="2" d=" M-1.5,-0.5 C-1.5,-0.5 1.5,0.5 1.5,0.5"></path>         </g>       </g>     </g>   </g> </svg>
